<mxfile host="app.diagrams.net" modified="2023-05-18T07:10:41.894Z" agent="Mozilla/5.0 (Macintosh; Intel Mac OS X 10_15_7) AppleWebKit/537.36 (KHTML, like Gecko) Chrome/113.0.0.0 Safari/537.36" etag="kuX0iqGV8F3De7exX3qA" version="21.2.9" type="github">
  <diagram name="Page-1" id="e7e014a7-5840-1c2e-5031-d8a46d1fe8dd">
    <mxGraphModel dx="1130" dy="726" grid="1" gridSize="10" guides="1" tooltips="1" connect="1" arrows="1" fold="1" page="1" pageScale="1" pageWidth="4681" pageHeight="3300" background="none" math="0" shadow="0">
      <root>
        <mxCell id="0" />
        <mxCell id="1" parent="0" />
        <mxCell id="2" value="scheduler" style="swimlane;whiteSpace=wrap" parent="1" vertex="1">
          <mxGeometry x="230" y="80" width="280" height="1210" as="geometry" />
        </mxCell>
        <mxCell id="ELyOhNBLIUhQ0mFMdweI-51" value="容器化迁移请求参数args添加migrateType&lt;br&gt;:cvm_to_container&lt;div style=&quot;font-size: medium; text-align: start;&quot; data-hash=&quot;b934f9f13d2e26bcd890b2fd7591daf2&quot; data-version=&quot;3.0.0&quot;&gt;&lt;/div&gt;" style="rounded=1;whiteSpace=wrap;html=1;" parent="2" vertex="1">
          <mxGeometry x="20" y="70" width="120" height="60" as="geometry" />
        </mxCell>
        <mxCell id="ELyOhNBLIUhQ0mFMdweI-57" value="" style="shape=singleArrow;direction=south;whiteSpace=wrap;html=1;" parent="2" vertex="1">
          <mxGeometry x="70" y="152" width="20" height="90" as="geometry" />
        </mxCell>
        <mxCell id="ELyOhNBLIUhQ0mFMdweI-58" value="wait" style="text;html=1;strokeColor=none;fillColor=none;align=center;verticalAlign=middle;whiteSpace=wrap;rounded=0;" parent="2" vertex="1">
          <mxGeometry x="80" y="179" width="60" height="30" as="geometry" />
        </mxCell>
        <mxCell id="ELyOhNBLIUhQ0mFMdweI-70" value="&lt;div style=&quot;line-height: 50%;&quot;&gt;&lt;span style=&quot;background-color: initial;&quot;&gt;continue&lt;/span&gt;&lt;/div&gt;&lt;div style=&quot;line-height: 50%;&quot;&gt;&lt;br&gt;&lt;/div&gt;&lt;div style=&quot;font-size: medium; text-align: start;&quot; data-hash=&quot;b934f9f13d2e26bcd890b2fd7591daf2&quot; data-version=&quot;3.0.0&quot;&gt;&lt;/div&gt;" style="rounded=1;whiteSpace=wrap;html=1;" parent="2" vertex="1">
          <mxGeometry x="43" y="272" width="80" height="40" as="geometry" />
        </mxCell>
        <mxCell id="ELyOhNBLIUhQ0mFMdweI-71" value="" style="endArrow=classic;html=1;rounded=0;" parent="2" edge="1">
          <mxGeometry relative="1" as="geometry">
            <mxPoint x="150" y="291.58000000000004" as="sourcePoint" />
            <mxPoint x="380" y="291.58000000000004" as="targetPoint" />
          </mxGeometry>
        </mxCell>
        <mxCell id="ELyOhNBLIUhQ0mFMdweI-72" value="/task/continueTask" style="edgeLabel;resizable=0;html=1;align=center;verticalAlign=middle;" parent="ELyOhNBLIUhQ0mFMdweI-71" connectable="0" vertex="1">
          <mxGeometry relative="1" as="geometry" />
        </mxCell>
        <mxCell id="3" value="migrate" style="swimlane;whiteSpace=wrap" parent="1" vertex="1">
          <mxGeometry x="510" y="80" width="280" height="1210" as="geometry" />
        </mxCell>
        <mxCell id="ELyOhNBLIUhQ0mFMdweI-49" value="" style="endArrow=classic;html=1;rounded=0;" parent="3" edge="1">
          <mxGeometry relative="1" as="geometry">
            <mxPoint x="-130" y="100" as="sourcePoint" />
            <mxPoint x="100" y="100" as="targetPoint" />
          </mxGeometry>
        </mxCell>
        <mxCell id="ELyOhNBLIUhQ0mFMdweI-50" value="/task/createInstanceMigrateTask" style="edgeLabel;resizable=0;html=1;align=center;verticalAlign=middle;" parent="ELyOhNBLIUhQ0mFMdweI-49" connectable="0" vertex="1">
          <mxGeometry relative="1" as="geometry" />
        </mxCell>
        <mxCell id="ELyOhNBLIUhQ0mFMdweI-52" value="&lt;span style=&quot;background-color: initial;&quot;&gt;添加dataRebalance&lt;br&gt;GrayScale灰度迁移步骤&lt;/span&gt;&lt;br&gt;&lt;div style=&quot;font-size: medium; text-align: start;&quot; data-hash=&quot;51bad6599d4df9e1a372acc4f7090577&quot; data-version=&quot;3.0.0&quot;&gt;&lt;/div&gt;&lt;div style=&quot;font-size: medium; text-align: start;&quot; data-hash=&quot;51bad6599d4df9e1a372acc4f7090577&quot; data-version=&quot;3.0.0&quot;&gt;&lt;/div&gt;" style="rounded=1;whiteSpace=wrap;html=1;" parent="3" vertex="1">
          <mxGeometry x="140" y="188" width="90" height="50" as="geometry" />
        </mxCell>
        <mxCell id="ELyOhNBLIUhQ0mFMdweI-61" value="请求参数存在migrateType&amp;amp;&amp;amp;getMig&lt;br style=&quot;border-color: var(--border-color);&quot;&gt;rateType()==cvm_&lt;br style=&quot;border-color: var(--border-color);&quot;&gt;&lt;div style=&quot;border-color: var(--border-color);&quot;&gt;to_container时&lt;/div&gt;" style="rhombus;whiteSpace=wrap;html=1;" parent="3" vertex="1">
          <mxGeometry x="105" y="56" width="160" height="90" as="geometry" />
        </mxCell>
        <mxCell id="ELyOhNBLIUhQ0mFMdweI-63" value="" style="endArrow=classic;html=1;rounded=0;" parent="3" edge="1">
          <mxGeometry relative="1" as="geometry">
            <mxPoint x="184.58000000000004" y="146" as="sourcePoint" />
            <mxPoint x="185" y="180" as="targetPoint" />
          </mxGeometry>
        </mxCell>
        <mxCell id="ELyOhNBLIUhQ0mFMdweI-64" value="true" style="edgeLabel;resizable=0;html=1;align=center;verticalAlign=middle;" parent="ELyOhNBLIUhQ0mFMdweI-63" connectable="0" vertex="1">
          <mxGeometry relative="1" as="geometry" />
        </mxCell>
        <mxCell id="ELyOhNBLIUhQ0mFMdweI-73" value="taskstep为&lt;br&gt;dataRebalance&lt;br&gt;GrayScale" style="rhombus;whiteSpace=wrap;html=1;" parent="3" vertex="1">
          <mxGeometry x="115" y="250" width="140" height="83" as="geometry" />
        </mxCell>
        <mxCell id="ELyOhNBLIUhQ0mFMdweI-75" value="" style="endArrow=classic;html=1;rounded=0;" parent="3" edge="1">
          <mxGeometry relative="1" as="geometry">
            <mxPoint x="184.57999999999998" y="337" as="sourcePoint" />
            <mxPoint x="185" y="387" as="targetPoint" />
          </mxGeometry>
        </mxCell>
        <mxCell id="ELyOhNBLIUhQ0mFMdweI-76" value="true" style="edgeLabel;resizable=0;html=1;align=center;verticalAlign=middle;" parent="ELyOhNBLIUhQ0mFMdweI-75" connectable="0" vertex="1">
          <mxGeometry relative="1" as="geometry" />
        </mxCell>
        <mxCell id="ELyOhNBLIUhQ0mFMdweI-80" value="获取生产流量为0 &amp;amp;&amp;amp;&lt;br&gt;存在消费链接 || 生产流量不为0且最小的topic的一个leader分区" style="rounded=1;whiteSpace=wrap;html=1;" parent="3" vertex="1">
          <mxGeometry x="123" y="388" width="126" height="70" as="geometry" />
        </mxCell>
        <mxCell id="JSiZ3nmcYXT4a2-7QSxX-3" value="获取目标pod的tcp链接" style="rounded=1;whiteSpace=wrap;html=1;fillColor=#d5e8d4;strokeColor=#82b366;" vertex="1" parent="3">
          <mxGeometry x="125" y="510" width="120" height="60" as="geometry" />
        </mxCell>
        <mxCell id="JSiZ3nmcYXT4a2-7QSxX-13" value="" style="endArrow=classic;html=1;rounded=0;" edge="1" parent="3">
          <mxGeometry width="50" height="50" relative="1" as="geometry">
            <mxPoint x="255" y="760" as="sourcePoint" />
            <mxPoint x="325" y="760" as="targetPoint" />
          </mxGeometry>
        </mxCell>
        <mxCell id="JSiZ3nmcYXT4a2-7QSxX-14" value="false" style="edgeLabel;html=1;align=center;verticalAlign=middle;resizable=0;points=[];" vertex="1" connectable="0" parent="JSiZ3nmcYXT4a2-7QSxX-13">
          <mxGeometry x="-0.0286" y="-1" relative="1" as="geometry">
            <mxPoint x="4" y="-1" as="offset" />
          </mxGeometry>
        </mxCell>
        <mxCell id="ELyOhNBLIUhQ0mFMdweI-42" value="" style="swimlane;whiteSpace=wrap" parent="1" vertex="1">
          <mxGeometry x="790" y="80" width="270" height="1210" as="geometry" />
        </mxCell>
        <mxCell id="ELyOhNBLIUhQ0mFMdweI-59" value="false&lt;br&gt;入库" style="endArrow=classic;html=1;rounded=0;" parent="ELyOhNBLIUhQ0mFMdweI-42" edge="1">
          <mxGeometry relative="1" as="geometry">
            <mxPoint x="-10" y="100.58000000000001" as="sourcePoint" />
            <mxPoint x="90" y="100.58000000000001" as="targetPoint" />
          </mxGeometry>
        </mxCell>
        <mxCell id="ELyOhNBLIUhQ0mFMdweI-60" value="&lt;br&gt;" style="edgeLabel;resizable=0;html=1;align=center;verticalAlign=middle;" parent="ELyOhNBLIUhQ0mFMdweI-59" connectable="0" vertex="1">
          <mxGeometry relative="1" as="geometry" />
        </mxCell>
        <mxCell id="ELyOhNBLIUhQ0mFMdweI-65" value="" style="endArrow=classic;html=1;rounded=0;" parent="ELyOhNBLIUhQ0mFMdweI-42" edge="1">
          <mxGeometry relative="1" as="geometry">
            <mxPoint x="-20" y="218" as="sourcePoint" />
            <mxPoint x="90" y="218" as="targetPoint" />
          </mxGeometry>
        </mxCell>
        <mxCell id="ELyOhNBLIUhQ0mFMdweI-66" value="入库" style="edgeLabel;resizable=0;html=1;align=center;verticalAlign=middle;" parent="ELyOhNBLIUhQ0mFMdweI-65" connectable="0" vertex="1">
          <mxGeometry relative="1" as="geometry" />
        </mxCell>
        <mxCell id="ELyOhNBLIUhQ0mFMdweI-67" value="正常流程,添加task、task_step表信息" style="rounded=1;whiteSpace=wrap;html=1;" parent="ELyOhNBLIUhQ0mFMdweI-42" vertex="1">
          <mxGeometry x="90" y="70" width="120" height="60" as="geometry" />
        </mxCell>
        <mxCell id="ELyOhNBLIUhQ0mFMdweI-68" value="添加task、task_step表信息,并增加dataRebalance&lt;br&gt;GrayScale step&lt;div style=&quot;font-size: medium; text-align: start;&quot; data-hash=&quot;6e9b22b1676da8ee65d56e9d671d54eb&quot; data-version=&quot;3.0.0&quot;&gt;&lt;/div&gt;" style="rounded=1;whiteSpace=wrap;html=1;" parent="ELyOhNBLIUhQ0mFMdweI-42" vertex="1">
          <mxGeometry x="90" y="188" width="120" height="60" as="geometry" />
        </mxCell>
        <mxCell id="ELyOhNBLIUhQ0mFMdweI-77" value="" style="endArrow=classic;html=1;rounded=0;" parent="ELyOhNBLIUhQ0mFMdweI-42" edge="1">
          <mxGeometry relative="1" as="geometry">
            <mxPoint x="-20" y="290" as="sourcePoint" />
            <mxPoint x="90" y="290" as="targetPoint" />
          </mxGeometry>
        </mxCell>
        <mxCell id="ELyOhNBLIUhQ0mFMdweI-78" value="false" style="edgeLabel;resizable=0;html=1;align=center;verticalAlign=middle;" parent="ELyOhNBLIUhQ0mFMdweI-77" connectable="0" vertex="1">
          <mxGeometry relative="1" as="geometry" />
        </mxCell>
        <mxCell id="ELyOhNBLIUhQ0mFMdweI-79" value="执行其他任务步骤" style="rounded=1;whiteSpace=wrap;html=1;" parent="ELyOhNBLIUhQ0mFMdweI-42" vertex="1">
          <mxGeometry x="90" y="270" width="120" height="60" as="geometry" />
        </mxCell>
        <mxCell id="JSiZ3nmcYXT4a2-7QSxX-15" value="告警走处理流程" style="ellipse;whiteSpace=wrap;html=1;fillColor=#f8cecc;strokeColor=#b85450;" vertex="1" parent="ELyOhNBLIUhQ0mFMdweI-42">
          <mxGeometry x="50" y="720" width="60" height="70" as="geometry" />
        </mxCell>
        <mxCell id="ELyOhNBLIUhQ0mFMdweI-82" value="注:只涉及instance级别的迁移" style="text;html=1;strokeColor=none;fillColor=none;align=center;verticalAlign=middle;whiteSpace=wrap;rounded=0;fontColor=#EA6B66;" parent="1" vertex="1">
          <mxGeometry x="240" y="30" width="160" height="30" as="geometry" />
        </mxCell>
        <mxCell id="JSiZ3nmcYXT4a2-7QSxX-4" value="" style="endArrow=classic;html=1;rounded=0;" edge="1" parent="1">
          <mxGeometry relative="1" as="geometry">
            <mxPoint x="695.5799999999999" y="538" as="sourcePoint" />
            <mxPoint x="696" y="588" as="targetPoint" />
          </mxGeometry>
        </mxCell>
        <mxCell id="JSiZ3nmcYXT4a2-7QSxX-5" value="true" style="edgeLabel;resizable=0;html=1;align=center;verticalAlign=middle;" connectable="0" vertex="1" parent="JSiZ3nmcYXT4a2-7QSxX-4">
          <mxGeometry relative="1" as="geometry" />
        </mxCell>
        <mxCell id="JSiZ3nmcYXT4a2-7QSxX-6" value="执行单个topic的单个leader分区迁移任务" style="rounded=1;whiteSpace=wrap;html=1;" vertex="1" parent="1">
          <mxGeometry x="635" y="700" width="120" height="60" as="geometry" />
        </mxCell>
        <mxCell id="JSiZ3nmcYXT4a2-7QSxX-7" value="" style="endArrow=classic;html=1;rounded=0;" edge="1" parent="1">
          <mxGeometry relative="1" as="geometry">
            <mxPoint x="695.5799999999999" y="648" as="sourcePoint" />
            <mxPoint x="696" y="698" as="targetPoint" />
          </mxGeometry>
        </mxCell>
        <mxCell id="JSiZ3nmcYXT4a2-7QSxX-8" value="true" style="edgeLabel;resizable=0;html=1;align=center;verticalAlign=middle;" connectable="0" vertex="1" parent="JSiZ3nmcYXT4a2-7QSxX-7">
          <mxGeometry relative="1" as="geometry" />
        </mxCell>
        <mxCell id="JSiZ3nmcYXT4a2-7QSxX-9" value="检查迁移前后的pod tcp链接的变化,diff(&lt;br&gt;TcpIpAList,TcpIpBList)&lt;br&gt;&amp;lt;=0" style="rounded=1;whiteSpace=wrap;html=1;fillColor=#d5e8d4;strokeColor=#82b366;" vertex="1" parent="1">
          <mxGeometry x="635" y="811" width="120" height="60" as="geometry" />
        </mxCell>
        <mxCell id="JSiZ3nmcYXT4a2-7QSxX-10" value="" style="endArrow=classic;html=1;rounded=0;" edge="1" parent="1">
          <mxGeometry relative="1" as="geometry">
            <mxPoint x="695.5799999999999" y="759" as="sourcePoint" />
            <mxPoint x="696" y="809" as="targetPoint" />
          </mxGeometry>
        </mxCell>
        <mxCell id="JSiZ3nmcYXT4a2-7QSxX-11" value="true" style="edgeLabel;resizable=0;html=1;align=center;verticalAlign=middle;" connectable="0" vertex="1" parent="JSiZ3nmcYXT4a2-7QSxX-10">
          <mxGeometry relative="1" as="geometry" />
        </mxCell>
      </root>
    </mxGraphModel>
  </diagram>
</mxfile>
